<?xml version="1.0" encoding="UTF-8"?> <svg xmlns="http://www.w3.org/2000/svg" width="135" height="134" viewBox="0 0 135 134" fill="none"> <path d="M3.04688 48.0938V57H0.046875V34.25H8.4375C10.9271 34.25 12.875 34.8854 14.2812 36.1562C15.6979 37.4271 16.4062 39.1094 16.4062 41.2031C16.4062 43.4115 15.7135 45.1146 14.3281 46.3125C12.9531 47.5 10.9792 48.0938 8.40625 48.0938H3.04688ZM3.04688 45.6406H8.4375C10.0417 45.6406 11.2708 45.2656 12.125 44.5156C12.9792 43.7552 13.4062 42.6615 13.4062 41.2344C13.4062 39.8802 12.9792 38.7969 12.125 37.9844C11.2708 37.1719 10.099 36.75 8.60938 36.7188H3.04688V45.6406Z" fill="black"></path> <path d="M30.6406 51.0625H21.1094L18.9688 57H15.875L24.5625 34.25H27.1875L35.8906 57H32.8125L30.6406 51.0625ZM22.0156 48.5938H29.75L25.875 37.9531L22.0156 48.5938Z" fill="black"></path> <path d="M47.2969 47.7969H41.9531V57H38.9375V34.25H46.4688C49.0312 34.25 51 34.8333 52.375 36C53.7604 37.1667 54.4531 38.8646 54.4531 41.0938C54.4531 42.5104 54.0677 43.7448 53.2969 44.7969C52.5365 45.849 51.474 46.6354 50.1094 47.1562L55.4531 56.8125V57H52.2344L47.2969 47.7969ZM41.9531 45.3438H46.5625C48.0521 45.3438 49.2344 44.9583 50.1094 44.1875C50.9948 43.4167 51.4375 42.3854 51.4375 41.0938C51.4375 39.6875 51.0156 38.6094 50.1719 37.8594C49.3385 37.1094 48.1302 36.7292 46.5469 36.7188H41.9531V45.3438Z" fill="black"></path> <path d="M73.1406 36.7188H65.8281V57H62.8438V36.7188H55.5469V34.25H73.1406V36.7188Z" fill="black"></path> <path d="M94 57H90.9844L79.5312 39.4688V57H76.5156V34.25H79.5312L91.0156 51.8594V34.25H94V57Z" fill="black"></path> <path d="M112.188 46.4844H102.328V54.5469H113.781V57H99.3281V34.25H113.625V36.7188H102.328V44.0312H112.188V46.4844Z" fill="black"></path> <path d="M125.859 47.7969H120.516V57H117.5V34.25H125.031C127.594 34.25 129.562 34.8333 130.938 36C132.323 37.1667 133.016 38.8646 133.016 41.0938C133.016 42.5104 132.63 43.7448 131.859 44.7969C131.099 45.849 130.036 46.6354 128.672 47.1562L134.016 56.8125V57H130.797L125.859 47.7969ZM120.516 45.3438H125.125C126.615 45.3438 127.797 44.9583 128.672 44.1875C129.557 43.4167 130 42.3854 130 41.0938C130 39.6875 129.578 38.6094 128.734 37.8594C127.901 37.1094 126.693 36.7292 125.109 36.7188H120.516V45.3438Z" fill="black"></path> <path d="M30.6562 99.5469H41.4375V102H27.6406V79.25H30.6562V99.5469Z" fill="black"></path> <path d="M61.3281 91.3594C61.3281 93.5885 60.9531 95.5365 60.2031 97.2031C59.4531 98.8594 58.3906 100.125 57.0156 101C55.6406 101.875 54.0365 102.312 52.2031 102.312C50.4115 102.312 48.8229 101.875 47.4375 101C46.0521 100.115 44.974 98.8594 44.2031 97.2344C43.4427 95.599 43.0521 93.7083 43.0312 91.5625V89.9219C43.0312 87.7344 43.4115 85.8021 44.1719 84.125C44.9323 82.4479 46.0052 81.1667 47.3906 80.2812C48.7865 79.3854 50.3802 78.9375 52.1719 78.9375C53.9948 78.9375 55.599 79.3802 56.9844 80.2656C58.3802 81.1406 59.4531 82.4167 60.2031 84.0938C60.9531 85.7604 61.3281 87.7031 61.3281 89.9219V91.3594ZM58.3438 89.8906C58.3438 87.1927 57.8021 85.125 56.7188 83.6875C55.6354 82.2396 54.1198 81.5156 52.1719 81.5156C50.276 81.5156 48.7812 82.2396 47.6875 83.6875C46.6042 85.125 46.0469 87.125 46.0156 89.6875V91.3594C46.0156 93.974 46.5625 96.0312 47.6562 97.5312C48.7604 99.0208 50.276 99.7656 52.2031 99.7656C54.1406 99.7656 55.6406 99.0625 56.7031 97.6562C57.7656 96.2396 58.3125 94.2135 58.3438 91.5781V89.8906Z" fill="black"></path> <path d="M82.625 99.0156C81.8542 100.12 80.776 100.948 79.3906 101.5C78.0156 102.042 76.4115 102.312 74.5781 102.312C72.724 102.312 71.0781 101.88 69.6406 101.016C68.2031 100.141 67.0885 98.901 66.2969 97.2969C65.5156 95.6927 65.1146 93.8333 65.0938 91.7188V89.7344C65.0938 86.3073 65.8906 83.651 67.4844 81.7656C69.0885 79.8802 71.3385 78.9375 74.2344 78.9375C76.6094 78.9375 78.5208 79.5469 79.9688 80.7656C81.4167 81.974 82.3021 83.6927 82.625 85.9219H79.625C79.0625 82.9115 77.2708 81.4062 74.25 81.4062C72.2396 81.4062 70.7135 82.1146 69.6719 83.5312C68.6406 84.9375 68.1198 86.9792 68.1094 89.6562V91.5156C68.1094 94.0677 68.6927 96.099 69.8594 97.6094C71.026 99.1094 72.6042 99.8594 74.5938 99.8594C75.7188 99.8594 76.7031 99.7344 77.5469 99.4844C78.3906 99.2344 79.0885 98.8125 79.6406 98.2188V93.1094H74.375V90.6719H82.625V99.0156Z" fill="black"></path> <path d="M105.141 91.3594C105.141 93.5885 104.766 95.5365 104.016 97.2031C103.266 98.8594 102.203 100.125 100.828 101C99.4531 101.875 97.849 102.312 96.0156 102.312C94.224 102.312 92.6354 101.875 91.25 101C89.8646 100.115 88.7865 98.8594 88.0156 97.2344C87.2552 95.599 86.8646 93.7083 86.8438 91.5625V89.9219C86.8438 87.7344 87.224 85.8021 87.9844 84.125C88.7448 82.4479 89.8177 81.1667 91.2031 80.2812C92.599 79.3854 94.1927 78.9375 95.9844 78.9375C97.8073 78.9375 99.4115 79.3802 100.797 80.2656C102.193 81.1406 103.266 82.4167 104.016 84.0938C104.766 85.7604 105.141 87.7031 105.141 89.9219V91.3594ZM102.156 89.8906C102.156 87.1927 101.615 85.125 100.531 83.6875C99.4479 82.2396 97.9323 81.5156 95.9844 81.5156C94.0885 81.5156 92.5938 82.2396 91.5 83.6875C90.4167 85.125 89.8594 87.125 89.8281 89.6875V91.3594C89.8281 93.974 90.375 96.0312 91.4688 97.5312C92.5729 99.0208 94.0885 99.7656 96.0156 99.7656C97.9531 99.7656 99.4531 99.0625 100.516 97.6562C101.578 96.2396 102.125 94.2135 102.156 91.5781V89.8906Z" fill="black"></path> </svg> 