<?xml version="1.0" encoding="UTF-8"?> <svg xmlns="http://www.w3.org/2000/svg" class="t455__svg" viewBox="0 0 48 48"> <desc>Youtube</desc> <path d="M24 0c13.2 0 24 10.7 24 24S37.2 48 24 48 0 37.2 0 24 10.7 0 24 0zm11.8 18.1c-.3-1.3-1.4-2.3-2.6-2.5-3.1-.2-6.1-.4-9.2-.4-3.1 0-6.1.2-9.2.3-1.3.1-2.4 1.1-2.6 2.5-.3 1.9-.4 3.9-.4 5.8s.1 3.9.4 5.8c.2 1.3 1.4 2.5 2.6 2.6 3.1.2 6.1.4 9.2.4 3.1 0 6.1-.2 9.2-.4 1.3-.1 2.4-1.3 2.6-2.6.3-1.9.4-3.9.4-5.8 0-1.8-.1-3.8-.4-5.7zm-14.6 9.3v-7.1l6.6 3.6-6.6 3.5z" fill="#fff"></path> </svg> 